<svg width="20" height="20" viewBox="0 0 20 20" fill="none" xmlns="http://www.w3.org/2000/svg">
<circle cx="10" cy="10" r="7.5" stroke="#979797"/>
<path d="M6.6543 10.4141C6.6543 10.2318 6.71615 10.0788 6.83984 9.95508C6.96354 9.82812 7.13118 9.76465 7.34277 9.76465C7.55762 9.76465 7.72526 9.82812 7.8457 9.95508C7.9694 10.0788 8.03125 10.2318 8.03125 10.4141C8.03125 10.5964 7.9694 10.7493 7.8457 10.873C7.72526 10.9967 7.55762 11.0586 7.34277 11.0586C7.13118 11.0586 6.96354 10.9967 6.83984 10.873C6.71615 10.7493 6.6543 10.5964 6.6543 10.4141ZM9.4375 10.4141C9.4375 10.2318 9.49935 10.0788 9.62305 9.95508C9.74674 9.82812 9.91439 9.76465 10.126 9.76465C10.3408 9.76465 10.5085 9.82812 10.6289 9.95508C10.7526 10.0788 10.8145 10.2318 10.8145 10.4141C10.8145 10.5964 10.7526 10.7493 10.6289 10.873C10.5085 10.9967 10.3408 11.0586 10.126 11.0586C9.91439 11.0586 9.74674 10.9967 9.62305 10.873C9.49935 10.7493 9.4375 10.5964 9.4375 10.4141ZM12.2207 10.4141C12.2207 10.2318 12.2826 10.0788 12.4062 9.95508C12.5299 9.82812 12.6976 9.76465 12.9092 9.76465C13.124 9.76465 13.2917 9.82812 13.4121 9.95508C13.5358 10.0788 13.5977 10.2318 13.5977 10.4141C13.5977 10.5964 13.5358 10.7493 13.4121 10.873C13.2917 10.9967 13.124 11.0586 12.9092 11.0586C12.6976 11.0586 12.5299 10.9967 12.4062 10.873C12.2826 10.7493 12.2207 10.5964 12.2207 10.4141Z" fill="#737373"/>
</svg>
